<svg width="17" height="17" viewBox="0 0 17 17" fill="none" xmlns="http://www.w3.org/2000/svg">
<path d="M16.3359 7.83594H0.664062C0.297301 7.83594 0 8.13324 0 8.5C0 8.86676 0.297301 9.16406 0.664062 9.16406H16.3359C16.7027 9.16406 17 8.86676 17 8.5C17 8.13324 16.7027 7.83594 16.3359 7.83594Z" fill="black"/>
<path d="M16.3359 2.52344H0.664062C0.297301 2.52344 0 2.82074 0 3.1875C0 3.55426 0.297301 3.85156 0.664062 3.85156H16.3359C16.7027 3.85156 17 3.55426 17 3.1875C17 2.82074 16.7027 2.52344 16.3359 2.52344Z" fill="black"/>
<path d="M16.3359 13.1484H0.664062C0.297301 13.1484 0 13.4457 0 13.8125C0 14.1793 0.297301 14.4766 0.664062 14.4766H16.3359C16.7027 14.4766 17 14.1793 17 13.8125C17 13.4457 16.7027 13.1484 16.3359 13.1484Z" fill="black"/>
</svg>
